<?xml version="1.0" encoding="UTF-8" standalone="no"?>
<!DOCTYPE svg PUBLIC "-//W3C//DTD SVG 1.1//EN"
 "http://www.w3.org/Graphics/SVG/1.1/DTD/svg11.dtd">
<!-- Generated by graphviz version 2.43.0 (0)
 -->
<!-- Title: %3 Pages: 1 -->
<svg width="905pt" height="332pt"
 viewBox="0.00 0.00 904.50 332.00" xmlns="http://www.w3.org/2000/svg" xmlns:xlink="http://www.w3.org/1999/xlink">
<g id="graph0" class="graph" transform="scale(1 1) rotate(0) translate(4 328)">
<title>%3</title>
<polygon fill="#242424" stroke="transparent" points="-4,4 -4,-328 900.5,-328 900.5,4 -4,4"/>
<!-- root.lunchbox..cli -->
<g id="node1" class="node">
<title>root.lunchbox..cli</title>
<polygon fill="#343434" stroke="#343434" points="688.5,-108 523.5,-108 523.5,-72 688.5,-72 688.5,-108"/>
<text text-anchor="middle" x="606" y="-86.3" font-family="Courier,monospace" font-size="14.00" fill="#b6ecf3">root.lunchbox..cli</text>
</g>
<!-- root.lunchbox..lunchbox.enforce -->
<g id="node2" class="node">
<title>root.lunchbox..lunchbox.enforce</title>
<polygon fill="#343434" stroke="#343434" points="555,-36 283,-36 283,0 555,0 555,-36"/>
<text text-anchor="middle" x="419" y="-14.3" font-family="Courier,monospace" font-size="14.00" fill="#b6ecf3">root.lunchbox..lunchbox.enforce</text>
</g>
<!-- root.lunchbox..lunchbox.stopwatch -->
<g id="node3" class="node">
<title>root.lunchbox..lunchbox.stopwatch</title>
<polygon fill="#343434" stroke="#343434" points="896.5,-36 607.5,-36 607.5,0 896.5,0 896.5,-36"/>
<text text-anchor="middle" x="752" y="-14.3" font-family="Courier,monospace" font-size="14.00" fill="#b6ecf3">root.lunchbox..lunchbox.stopwatch</text>
</g>
<!-- root.lunchbox..lunchbox.tools -->
<g id="node4" class="node">
<title>root.lunchbox..lunchbox.tools</title>
<polygon fill="#343434" stroke="#343434" points="265,-36 9,-36 9,0 265,0 265,-36"/>
<text text-anchor="middle" x="137" y="-14.3" font-family="Courier,monospace" font-size="14.00" fill="#b6ecf3">root.lunchbox..lunchbox.tools</text>
</g>
<!-- humanfriendly -->
<g id="node5" class="node">
<title>humanfriendly</title>
<polygon fill="#343434" stroke="#343434" points="831,-108 707,-108 707,-72 831,-72 831,-108"/>
<text text-anchor="middle" x="769" y="-86.3" font-family="Courier,monospace" font-size="14.00" fill="#de958e">humanfriendly</text>
</g>
<!-- humanfriendly&#45;&gt;root.lunchbox..lunchbox.stopwatch -->
<g id="edge1" class="edge">
<title>humanfriendly&#45;&gt;root.lunchbox..lunchbox.stopwatch</title>
<path fill="none" stroke="#de958e" d="M764.8,-71.7C762.9,-63.9 760.62,-54.51 758.52,-45.83"/>
<polygon fill="#de958e" stroke="#de958e" points="761.92,-45 756.15,-36.1 755.11,-46.65 761.92,-45"/>
</g>
<!-- root -->
<g id="node6" class="node">
<title>root</title>
<polygon fill="#343434" stroke="#343434" points="488,-324 434,-324 434,-288 488,-288 488,-324"/>
<text text-anchor="middle" x="461" y="-302.3" font-family="Courier,monospace" font-size="14.00" fill="#a0d17b">root</text>
</g>
<!-- root.lunchbox -->
<g id="node7" class="node">
<title>root.lunchbox</title>
<polygon fill="#343434" stroke="#343434" points="523,-252 399,-252 399,-216 523,-216 523,-252"/>
<text text-anchor="middle" x="461" y="-230.3" font-family="Courier,monospace" font-size="14.00" fill="#a0d17b">root.lunchbox</text>
</g>
<!-- root&#45;&gt;root.lunchbox -->
<g id="edge2" class="edge">
<title>root&#45;&gt;root.lunchbox</title>
<path fill="none" stroke="#a0d17b" d="M461,-287.7C461,-279.98 461,-270.71 461,-262.11"/>
<polygon fill="#a0d17b" stroke="#a0d17b" points="464.5,-262.1 461,-252.1 457.5,-262.1 464.5,-262.1"/>
</g>
<!-- root.lunchbox. -->
<g id="node8" class="node">
<title>root.lunchbox.</title>
<polygon fill="#343434" stroke="#343434" points="605,-180 473,-180 473,-144 605,-144 605,-180"/>
<text text-anchor="middle" x="539" y="-158.3" font-family="Courier,monospace" font-size="14.00" fill="#a0d17b">root.lunchbox.</text>
</g>
<!-- root&#45;&gt;root.lunchbox. -->
<g id="edge3" class="edge">
<title>root&#45;&gt;root.lunchbox.</title>
<path fill="none" stroke="#a0d17b" d="M488.29,-292.05C503.9,-283.11 522.27,-269.64 532,-252 542.32,-233.28 543.56,-208.9 542.5,-190.39"/>
<polygon fill="#a0d17b" stroke="#a0d17b" points="545.97,-189.93 541.66,-180.25 538.99,-190.51 545.97,-189.93"/>
</g>
<!-- root.lunchbox..lunchbox -->
<g id="node9" class="node">
<title>root.lunchbox..lunchbox</title>
<polygon fill="#343434" stroke="#343434" points="505,-108 299,-108 299,-72 505,-72 505,-108"/>
<text text-anchor="middle" x="402" y="-86.3" font-family="Courier,monospace" font-size="14.00" fill="#a0d17b">root.lunchbox..lunchbox</text>
</g>
<!-- root&#45;&gt;root.lunchbox..lunchbox -->
<g id="edge4" class="edge">
<title>root&#45;&gt;root.lunchbox..lunchbox</title>
<path fill="none" stroke="#a0d17b" d="M433.93,-292.72C417.98,-283.88 399.17,-270.29 390,-252 368.37,-208.86 381.26,-150.91 392.03,-117.6"/>
<polygon fill="#a0d17b" stroke="#a0d17b" points="395.35,-118.69 395.26,-108.09 388.73,-116.43 395.35,-118.69"/>
</g>
<!-- root.lunchbox&#45;&gt;root.lunchbox. -->
<g id="edge5" class="edge">
<title>root.lunchbox&#45;&gt;root.lunchbox.</title>
<path fill="none" stroke="#a0d17b" d="M480.28,-215.7C489.92,-207.05 501.73,-196.45 512.23,-187.03"/>
<polygon fill="#a0d17b" stroke="#a0d17b" points="514.84,-189.39 519.94,-180.1 510.16,-184.18 514.84,-189.39"/>
</g>
<!-- root.lunchbox&#45;&gt;root.lunchbox..lunchbox -->
<g id="edge6" class="edge">
<title>root.lunchbox&#45;&gt;root.lunchbox..lunchbox</title>
<path fill="none" stroke="#a0d17b" d="M453.88,-215.87C443.74,-191.46 425.03,-146.43 413.07,-117.64"/>
<polygon fill="#a0d17b" stroke="#a0d17b" points="416.21,-116.08 409.14,-108.19 409.75,-118.77 416.21,-116.08"/>
</g>
<!-- root.lunchbox.&#45;&gt;root.lunchbox..cli -->
<g id="edge7" class="edge">
<title>root.lunchbox.&#45;&gt;root.lunchbox..cli</title>
<path fill="none" stroke="#a0d17b" d="M555.56,-143.7C563.68,-135.22 573.59,-124.86 582.47,-115.58"/>
<polygon fill="#a0d17b" stroke="#a0d17b" points="585.24,-117.75 589.63,-108.1 580.19,-112.91 585.24,-117.75"/>
</g>
<!-- root.lunchbox.&#45;&gt;root.lunchbox..lunchbox -->
<g id="edge8" class="edge">
<title>root.lunchbox.&#45;&gt;root.lunchbox..lunchbox</title>
<path fill="none" stroke="#a0d17b" d="M505.49,-143.88C487.16,-134.51 464.26,-122.81 444.67,-112.8"/>
<polygon fill="#a0d17b" stroke="#a0d17b" points="446.14,-109.62 435.64,-108.19 442.96,-115.86 446.14,-109.62"/>
</g>
<!-- root.lunchbox..lunchbox&#45;&gt;root.lunchbox..lunchbox.enforce -->
<g id="edge9" class="edge">
<title>root.lunchbox..lunchbox&#45;&gt;root.lunchbox..lunchbox.enforce</title>
<path fill="none" stroke="#a0d17b" d="M406.2,-71.7C408.1,-63.9 410.38,-54.51 412.48,-45.83"/>
<polygon fill="#a0d17b" stroke="#a0d17b" points="415.89,-46.65 414.85,-36.1 409.08,-45 415.89,-46.65"/>
</g>
<!-- root.lunchbox..lunchbox&#45;&gt;root.lunchbox..lunchbox.stopwatch -->
<g id="edge10" class="edge">
<title>root.lunchbox..lunchbox&#45;&gt;root.lunchbox..lunchbox.stopwatch</title>
<path fill="none" stroke="#a0d17b" d="M487.17,-71.97C538.4,-61.72 603.72,-48.66 656.67,-38.07"/>
<polygon fill="#a0d17b" stroke="#a0d17b" points="657.63,-41.44 666.75,-36.05 656.26,-34.58 657.63,-41.44"/>
</g>
<!-- root.lunchbox..lunchbox&#45;&gt;root.lunchbox..lunchbox.tools -->
<g id="edge11" class="edge">
<title>root.lunchbox..lunchbox&#45;&gt;root.lunchbox..lunchbox.tools</title>
<path fill="none" stroke="#a0d17b" d="M337.51,-71.97C299.52,-61.93 251.29,-49.19 211.66,-38.72"/>
<polygon fill="#a0d17b" stroke="#a0d17b" points="212.34,-35.28 201.78,-36.11 210.55,-42.05 212.34,-35.28"/>
</g>
<!-- lunchbox.stopwatch -->
<g id="node10" class="node">
<title>lunchbox.stopwatch</title>
<polygon fill="#343434" stroke="#343434" points="241.5,-108 76.5,-108 76.5,-72 241.5,-72 241.5,-108"/>
<text text-anchor="middle" x="159" y="-86.3" font-family="Courier,monospace" font-size="14.00" fill="#de958e">lunchbox.stopwatch</text>
</g>
<!-- lunchbox.stopwatch&#45;&gt;root.lunchbox..lunchbox.tools -->
<g id="edge12" class="edge">
<title>lunchbox.stopwatch&#45;&gt;root.lunchbox..lunchbox.tools</title>
<path fill="none" stroke="#de958e" d="M153.56,-71.7C151.11,-63.9 148.16,-54.51 145.43,-45.83"/>
<polygon fill="#de958e" stroke="#de958e" points="148.71,-44.59 142.38,-36.1 142.04,-46.69 148.71,-44.59"/>
</g>
<!-- wrapt -->
<g id="node11" class="node">
<title>wrapt</title>
<polygon fill="#343434" stroke="#343434" points="58,-108 0,-108 0,-72 58,-72 58,-108"/>
<text text-anchor="middle" x="29" y="-86.3" font-family="Courier,monospace" font-size="14.00" fill="#de958e">wrapt</text>
</g>
<!-- wrapt&#45;&gt;root.lunchbox..lunchbox.tools -->
<g id="edge13" class="edge">
<title>wrapt&#45;&gt;root.lunchbox..lunchbox.tools</title>
<path fill="none" stroke="#de958e" d="M55.42,-71.88C69.41,-62.81 86.78,-51.55 101.89,-41.76"/>
<polygon fill="#de958e" stroke="#de958e" points="103.99,-44.57 110.48,-36.19 100.18,-38.69 103.99,-44.57"/>
</g>
</g>
</svg>
