<?xml version="1.0" encoding="UTF-8" standalone="no"?>
<!DOCTYPE svg PUBLIC "-//W3C//DTD SVG 1.1//EN"
 "http://www.w3.org/Graphics/SVG/1.1/DTD/svg11.dtd">
<!-- Generated by graphviz version 2.43.0 (0)
 -->
<!-- Title: %3 Pages: 1 -->
<svg width="686pt" height="327pt"
 viewBox="0.00 0.00 686.00 326.60" xmlns="http://www.w3.org/2000/svg" xmlns:xlink="http://www.w3.org/1999/xlink">
<g id="graph0" class="graph" transform="scale(1 1) rotate(0) translate(4 322.6)">
<title>%3</title>
<polygon fill="#242424" stroke="transparent" points="-4,4 -4,-322.6 682,-322.6 682,4 -4,4"/>
<!-- cli -->
<g id="node1" class="node">
<title>cli</title>
<polygon fill="#343434" stroke="#343434" points="89,-36 35,-36 35,0 89,0 89,-36"/>
<text text-anchor="middle" x="62" y="-14.3" font-family="Courier,monospace" font-size="14.00" fill="#b6ecf3">cli</text>
</g>
<!-- lunchbox\.command -->
<g id="node2" class="node">
<title>lunchbox\.command</title>
<polygon fill="#343434" stroke="#343434" points="678,-136 529,-136 529,-100 678,-100 678,-136"/>
<text text-anchor="middle" x="603.5" y="-114.3" font-family="Courier,monospace" font-size="14.00" fill="#b6ecf3">lunchbox.command</text>
</g>
<!-- lunchbox\.enforce -->
<g id="node3" class="node">
<title>lunchbox\.enforce</title>
<polygon fill="#343434" stroke="#343434" points="317,-290 168,-290 168,-254 317,-254 317,-290"/>
<text text-anchor="middle" x="242.5" y="-268.3" font-family="Courier,monospace" font-size="14.00" fill="#b6ecf3">lunchbox.enforce</text>
</g>
<!-- lunchbox\.tools -->
<g id="node7" class="node">
<title>lunchbox\.tools</title>
<polygon fill="#343434" stroke="#343434" points="493,-136 361,-136 361,-100 493,-100 493,-136"/>
<text text-anchor="middle" x="427" y="-114.3" font-family="Courier,monospace" font-size="14.00" fill="#b6ecf3">lunchbox.tools</text>
</g>
<!-- lunchbox\.enforce&#45;&gt;lunchbox\.tools -->
<g id="edge1" class="edge">
<title>lunchbox\.enforce&#45;&gt;lunchbox\.tools</title>
<path fill="none" stroke="#b6ecf3" d="M309.63,-253.86C315.03,-251.27 320.23,-248.33 325,-245 362.94,-218.52 393.76,-173.75 410.99,-145.05"/>
<polygon fill="#b6ecf3" stroke="#b6ecf3" points="414.06,-146.74 416.1,-136.34 408.02,-143.2 414.06,-146.74"/>
</g>
<!-- lunchbox\.singleton -->
<g id="node4" class="node">
<title>lunchbox\.singleton</title>
<polygon fill="#343434" stroke="#343434" points="325,-236 160,-236 160,-200 325,-200 325,-236"/>
<text text-anchor="middle" x="242.5" y="-214.3" font-family="Courier,monospace" font-size="14.00" fill="#b6ecf3">lunchbox.singleton</text>
</g>
<!-- lunchbox\.stopwatch -->
<g id="node5" class="node">
<title>lunchbox\.stopwatch</title>
<polygon fill="#343434" stroke="#343434" points="325,-90 160,-90 160,-54 325,-54 325,-90"/>
<text text-anchor="middle" x="242.5" y="-68.3" font-family="Courier,monospace" font-size="14.00" fill="#b6ecf3">lunchbox.stopwatch</text>
</g>
<!-- lunchbox\.stopwatch&#45;&gt;lunchbox\.tools -->
<g id="edge2" class="edge">
<title>lunchbox\.stopwatch&#45;&gt;lunchbox\.tools</title>
<path fill="none" stroke="#b6ecf3" d="M315.11,-90.05C326.89,-93.02 339.12,-96.1 350.99,-99.09"/>
<polygon fill="#b6ecf3" stroke="#b6ecf3" points="350.29,-102.53 360.84,-101.58 352,-95.74 350.29,-102.53"/>
</g>
<!-- lunchbox\.theme -->
<g id="node6" class="node">
<title>lunchbox\.theme</title>
<polygon fill="#343434" stroke="#343434" points="308.5,-182 176.5,-182 176.5,-146 308.5,-146 308.5,-182"/>
<text text-anchor="middle" x="242.5" y="-160.3" font-family="Courier,monospace" font-size="14.00" fill="#b6ecf3">lunchbox.theme</text>
</g>
<!-- lunchbox\.tools&#45;&gt;lunchbox\.command -->
<g id="edge3" class="edge">
<title>lunchbox\.tools&#45;&gt;lunchbox\.command</title>
<path fill="none" stroke="#b6ecf3" d="M493.47,-118C501.66,-118 510.11,-118 518.52,-118"/>
<polygon fill="#b6ecf3" stroke="#b6ecf3" points="518.75,-121.5 528.75,-118 518.75,-114.5 518.75,-121.5"/>
</g>
<!-- click -->
<g id="node8" class="node">
<title>click</title>
<polygon fill="#343434" stroke="#343434" points="456,-82 398,-82 398,-46 456,-46 456,-82"/>
<text text-anchor="middle" x="427" y="-60.3" font-family="Courier,monospace" font-size="14.00" fill="#de958e">click</text>
</g>
<!-- click&#45;&gt;lunchbox\.command -->
<g id="edge4" class="edge">
<title>click&#45;&gt;lunchbox\.command</title>
<path fill="none" stroke="#de958e" d="M456.04,-72.68C477.14,-79.21 507.01,-88.45 534.27,-96.88"/>
<polygon fill="#de958e" stroke="#de958e" points="533.58,-100.34 544.17,-99.95 535.65,-93.65 533.58,-100.34"/>
</g>
<!-- lunchbox -->
<g id="node9" class="node">
<title>lunchbox</title>
<polygon fill="#343434" stroke="#343434" points="103.5,-209 20.5,-209 20.5,-173 103.5,-173 103.5,-209"/>
<text text-anchor="middle" x="62" y="-187.3" font-family="Courier,monospace" font-size="14.00" fill="#a0d17b">lunchbox</text>
</g>
<!-- lunchbox&#45;&gt;lunchbox\.command -->
<g id="edge5" class="edge">
<title>lunchbox&#45;&gt;lunchbox\.command</title>
<path fill="none" stroke="#a0d17b" d="M72.62,-209.02C87.45,-234.64 118.57,-280.52 160,-299 226.97,-328.87 254.71,-319.9 325,-299 428.72,-268.16 529.85,-184.91 576.19,-142.93"/>
<polygon fill="#a0d17b" stroke="#a0d17b" points="578.66,-145.41 583.67,-136.07 573.93,-140.25 578.66,-145.41"/>
</g>
<!-- lunchbox&#45;&gt;lunchbox\.enforce -->
<g id="edge6" class="edge">
<title>lunchbox&#45;&gt;lunchbox\.enforce</title>
<path fill="none" stroke="#a0d17b" d="M91.98,-209.03C110.89,-220.3 136.35,-234.61 160,-245 164.29,-246.89 168.76,-248.72 173.3,-250.48"/>
<polygon fill="#a0d17b" stroke="#a0d17b" points="172.08,-253.76 182.68,-253.99 174.54,-247.2 172.08,-253.76"/>
</g>
<!-- lunchbox&#45;&gt;lunchbox\.singleton -->
<g id="edge7" class="edge">
<title>lunchbox&#45;&gt;lunchbox\.singleton</title>
<path fill="none" stroke="#a0d17b" d="M103.5,-197.13C117.39,-199.23 133.54,-201.67 149.81,-204.13"/>
<polygon fill="#a0d17b" stroke="#a0d17b" points="149.52,-207.63 159.93,-205.66 150.56,-200.71 149.52,-207.63"/>
</g>
<!-- lunchbox&#45;&gt;lunchbox\.stopwatch -->
<g id="edge8" class="edge">
<title>lunchbox&#45;&gt;lunchbox\.stopwatch</title>
<path fill="none" stroke="#a0d17b" d="M79.34,-172.91C97.5,-153.7 128.42,-123.47 160,-104 165.74,-100.46 171.93,-97.19 178.25,-94.2"/>
<polygon fill="#a0d17b" stroke="#a0d17b" points="179.88,-97.3 187.57,-90.01 177.01,-90.92 179.88,-97.3"/>
</g>
<!-- lunchbox&#45;&gt;lunchbox\.theme -->
<g id="edge9" class="edge">
<title>lunchbox&#45;&gt;lunchbox\.theme</title>
<path fill="none" stroke="#a0d17b" d="M103.5,-184.87C122.06,-182.07 144.68,-178.65 166.19,-175.39"/>
<polygon fill="#a0d17b" stroke="#a0d17b" points="166.94,-178.82 176.3,-173.86 165.89,-171.9 166.94,-178.82"/>
</g>
<!-- lunchbox&#45;&gt;lunchbox\.tools -->
<g id="edge10" class="edge">
<title>lunchbox&#45;&gt;lunchbox\.tools</title>
<path fill="none" stroke="#a0d17b" d="M88.37,-172.8C107.17,-160.35 133.96,-144.76 160,-137 222.42,-118.4 296.57,-114.5 350.7,-114.77"/>
<polygon fill="#a0d17b" stroke="#a0d17b" points="350.88,-118.27 360.91,-114.87 350.94,-111.27 350.88,-118.27"/>
</g>
<!-- humanfriendly -->
<g id="node10" class="node">
<title>humanfriendly</title>
<polygon fill="#343434" stroke="#343434" points="124,-90 0,-90 0,-54 124,-54 124,-90"/>
<text text-anchor="middle" x="62" y="-68.3" font-family="Courier,monospace" font-size="14.00" fill="#de958e">humanfriendly</text>
</g>
<!-- humanfriendly&#45;&gt;lunchbox\.stopwatch -->
<g id="edge11" class="edge">
<title>humanfriendly&#45;&gt;lunchbox\.stopwatch</title>
<path fill="none" stroke="#de958e" d="M124.43,-72C132.62,-72 141.16,-72 149.73,-72"/>
<polygon fill="#de958e" stroke="#de958e" points="149.78,-75.5 159.78,-72 149.78,-68.5 149.78,-75.5"/>
</g>
<!-- wrapt -->
<g id="node11" class="node">
<title>wrapt</title>
<polygon fill="#343434" stroke="#343434" points="271.5,-36 213.5,-36 213.5,0 271.5,0 271.5,-36"/>
<text text-anchor="middle" x="242.5" y="-14.3" font-family="Courier,monospace" font-size="14.00" fill="#de958e">wrapt</text>
</g>
<!-- wrapt&#45;&gt;lunchbox\.tools -->
<g id="edge12" class="edge">
<title>wrapt&#45;&gt;lunchbox\.tools</title>
<path fill="none" stroke="#de958e" d="M271.78,-23.08C288.39,-27.06 309.15,-33.85 325,-45 346.23,-59.94 340.34,-75.28 361,-91 362.78,-92.35 364.63,-93.65 366.55,-94.89"/>
<polygon fill="#de958e" stroke="#de958e" points="364.84,-97.95 375.24,-99.99 368.39,-91.91 364.84,-97.95"/>
</g>
</g>
</svg>
