<?xml version="1.0" encoding="UTF-8" standalone="no"?>
<!DOCTYPE svg PUBLIC "-//W3C//DTD SVG 1.1//EN"
 "http://www.w3.org/Graphics/SVG/1.1/DTD/svg11.dtd">
<!-- Generated by graphviz version 2.40.1 (20161225.0304)
 -->
<!-- Title: %3 Pages: 1 -->
<svg width="934pt" height="332pt"
 viewBox="0.00 0.00 933.50 332.00" xmlns="http://www.w3.org/2000/svg" xmlns:xlink="http://www.w3.org/1999/xlink">
<g id="graph0" class="graph" transform="scale(1 1) rotate(0) translate(4 328)">
<title>%3</title>
<polygon fill="#242424" stroke="transparent" points="-4,4 -4,-328 929.5,-328 929.5,4 -4,4"/>
<!-- root.lunchbox..cli -->
<g id="node1" class="node">
<title>root.lunchbox..cli</title>
<polygon fill="#343434" stroke="#343434" points="165,-108 0,-108 0,-72 165,-72 165,-108"/>
<text text-anchor="middle" x="82.5" y="-86.3" font-family="Courier,monospace" font-size="14.00" fill="#b6ecf3">root.lunchbox..cli</text>
</g>
<!-- root.lunchbox..lunchbox.enforce -->
<g id="node2" class="node">
<title>root.lunchbox..lunchbox.enforce</title>
<polygon fill="#343434" stroke="#343434" points="651.5,-36 379.5,-36 379.5,0 651.5,0 651.5,-36"/>
<text text-anchor="middle" x="515.5" y="-14.3" font-family="Courier,monospace" font-size="14.00" fill="#b6ecf3">root.lunchbox..lunchbox.enforce</text>
</g>
<!-- root.lunchbox..lunchbox.stopwatch -->
<g id="node3" class="node">
<title>root.lunchbox..lunchbox.stopwatch</title>
<polygon fill="#343434" stroke="#343434" points="361,-36 72,-36 72,0 361,0 361,-36"/>
<text text-anchor="middle" x="216.5" y="-14.3" font-family="Courier,monospace" font-size="14.00" fill="#b6ecf3">root.lunchbox..lunchbox.stopwatch</text>
</g>
<!-- root.lunchbox..lunchbox.tools -->
<g id="node4" class="node">
<title>root.lunchbox..lunchbox.tools</title>
<polygon fill="#343434" stroke="#343434" points="925.5,-36 669.5,-36 669.5,0 925.5,0 925.5,-36"/>
<text text-anchor="middle" x="797.5" y="-14.3" font-family="Courier,monospace" font-size="14.00" fill="#b6ecf3">root.lunchbox..lunchbox.tools</text>
</g>
<!-- humanfriendly -->
<g id="node5" class="node">
<title>humanfriendly</title>
<polygon fill="#343434" stroke="#343434" points="307.5,-108 183.5,-108 183.5,-72 307.5,-72 307.5,-108"/>
<text text-anchor="middle" x="245.5" y="-86.3" font-family="Courier,monospace" font-size="14.00" fill="#de958e">humanfriendly</text>
</g>
<!-- humanfriendly&#45;&gt;root.lunchbox..lunchbox.stopwatch -->
<g id="edge1" class="edge">
<title>humanfriendly&#45;&gt;root.lunchbox..lunchbox.stopwatch</title>
<path fill="none" stroke="#de958e" d="M238.1821,-71.8314C235.0124,-63.9617 231.23,-54.5712 227.7187,-45.8533"/>
<polygon fill="#de958e" stroke="#de958e" points="230.8992,-44.3815 223.9165,-36.4133 224.4061,-46.9968 230.8992,-44.3815"/>
</g>
<!-- root -->
<g id="node6" class="node">
<title>root</title>
<polygon fill="#343434" stroke="#343434" points="448.5,-324 394.5,-324 394.5,-288 448.5,-288 448.5,-324"/>
<text text-anchor="middle" x="421.5" y="-302.3" font-family="Courier,monospace" font-size="14.00" fill="#a0d17b">root</text>
</g>
<!-- root.lunchbox -->
<g id="node7" class="node">
<title>root.lunchbox</title>
<polygon fill="#343434" stroke="#343434" points="483.5,-252 359.5,-252 359.5,-216 483.5,-216 483.5,-252"/>
<text text-anchor="middle" x="421.5" y="-230.3" font-family="Courier,monospace" font-size="14.00" fill="#a0d17b">root.lunchbox</text>
</g>
<!-- root&#45;&gt;root.lunchbox -->
<g id="edge2" class="edge">
<title>root&#45;&gt;root.lunchbox</title>
<path fill="none" stroke="#a0d17b" d="M421.5,-287.8314C421.5,-280.131 421.5,-270.9743 421.5,-262.4166"/>
<polygon fill="#a0d17b" stroke="#a0d17b" points="425.0001,-262.4132 421.5,-252.4133 418.0001,-262.4133 425.0001,-262.4132"/>
</g>
<!-- root.lunchbox. -->
<g id="node8" class="node">
<title>root.lunchbox.</title>
<polygon fill="#343434" stroke="#343434" points="421.5,-180 289.5,-180 289.5,-144 421.5,-144 421.5,-180"/>
<text text-anchor="middle" x="355.5" y="-158.3" font-family="Courier,monospace" font-size="14.00" fill="#a0d17b">root.lunchbox.</text>
</g>
<!-- root&#45;&gt;root.lunchbox. -->
<g id="edge3" class="edge">
<title>root&#45;&gt;root.lunchbox.</title>
<path fill="none" stroke="#a0d17b" d="M394.4153,-293.3611C378.4557,-284.3078 359.6492,-270.4534 350.5,-252 341.0423,-232.9245 343.0497,-208.7041 347.007,-190.1953"/>
<polygon fill="#a0d17b" stroke="#a0d17b" points="350.45,-190.8494 349.4177,-180.305 343.6491,-189.1917 350.45,-190.8494"/>
</g>
<!-- root.lunchbox..lunchbox -->
<g id="node9" class="node">
<title>root.lunchbox..lunchbox</title>
<polygon fill="#343434" stroke="#343434" points="589.5,-108 383.5,-108 383.5,-72 589.5,-72 589.5,-108"/>
<text text-anchor="middle" x="486.5" y="-86.3" font-family="Courier,monospace" font-size="14.00" fill="#a0d17b">root.lunchbox..lunchbox</text>
</g>
<!-- root&#45;&gt;root.lunchbox..lunchbox -->
<g id="edge4" class="edge">
<title>root&#45;&gt;root.lunchbox..lunchbox</title>
<path fill="none" stroke="#a0d17b" d="M448.5847,-293.3611C464.5443,-284.3078 483.3508,-270.4534 492.5,-252 513.7999,-209.0396 504.0909,-151.5077 495.2133,-117.8281"/>
<polygon fill="#a0d17b" stroke="#a0d17b" points="498.5809,-116.8742 492.5201,-108.1841 491.8388,-118.757 498.5809,-116.8742"/>
</g>
<!-- root.lunchbox&#45;&gt;root.lunchbox. -->
<g id="edge5" class="edge">
<title>root.lunchbox&#45;&gt;root.lunchbox.</title>
<path fill="none" stroke="#a0d17b" d="M404.8454,-215.8314C397.0886,-207.3694 387.7198,-197.1489 379.239,-187.8971"/>
<polygon fill="#a0d17b" stroke="#a0d17b" points="381.7162,-185.4198 372.3788,-180.4133 376.5561,-190.1499 381.7162,-185.4198"/>
</g>
<!-- root.lunchbox&#45;&gt;root.lunchbox..lunchbox -->
<g id="edge6" class="edge">
<title>root.lunchbox&#45;&gt;root.lunchbox..lunchbox</title>
<path fill="none" stroke="#a0d17b" d="M429.7323,-215.7623C440.9655,-190.8764 461.1851,-146.0822 474.2148,-117.2165"/>
<polygon fill="#a0d17b" stroke="#a0d17b" points="477.4104,-118.6441 478.3345,-108.0896 471.0302,-115.7641 477.4104,-118.6441"/>
</g>
<!-- root.lunchbox.&#45;&gt;root.lunchbox..cli -->
<g id="edge7" class="edge">
<title>root.lunchbox.&#45;&gt;root.lunchbox..cli</title>
<path fill="none" stroke="#a0d17b" d="M289.4143,-144.5708C250.6361,-134.3436 201.417,-121.3627 160.7124,-110.6274"/>
<polygon fill="#a0d17b" stroke="#a0d17b" points="161.39,-107.1865 150.8281,-108.0206 159.6049,-113.9551 161.39,-107.1865"/>
</g>
<!-- root.lunchbox.&#45;&gt;root.lunchbox..lunchbox -->
<g id="edge8" class="edge">
<title>root.lunchbox.&#45;&gt;root.lunchbox..lunchbox</title>
<path fill="none" stroke="#a0d17b" d="M388.5568,-143.8314C405.4677,-134.5368 426.2385,-123.1208 444.2941,-113.1971"/>
<polygon fill="#a0d17b" stroke="#a0d17b" points="446.376,-116.0468 453.4537,-108.1628 443.0043,-109.9122 446.376,-116.0468"/>
</g>
<!-- root.lunchbox..lunchbox&#45;&gt;root.lunchbox..lunchbox.enforce -->
<g id="edge9" class="edge">
<title>root.lunchbox..lunchbox&#45;&gt;root.lunchbox..lunchbox.enforce</title>
<path fill="none" stroke="#a0d17b" d="M493.8179,-71.8314C496.9876,-63.9617 500.77,-54.5712 504.2813,-45.8533"/>
<polygon fill="#a0d17b" stroke="#a0d17b" points="507.5939,-46.9968 508.0835,-36.4133 501.1008,-44.3815 507.5939,-46.9968"/>
</g>
<!-- root.lunchbox..lunchbox&#45;&gt;root.lunchbox..lunchbox.stopwatch -->
<g id="edge10" class="edge">
<title>root.lunchbox..lunchbox&#45;&gt;root.lunchbox..lunchbox.stopwatch</title>
<path fill="none" stroke="#a0d17b" d="M418.7161,-71.9243C380.8426,-61.8247 333.4933,-49.1982 294.1352,-38.7027"/>
<polygon fill="#a0d17b" stroke="#a0d17b" points="294.876,-35.278 284.3118,-36.0831 293.0723,-42.0417 294.876,-35.278"/>
</g>
<!-- root.lunchbox..lunchbox&#45;&gt;root.lunchbox..lunchbox.tools -->
<g id="edge11" class="edge">
<title>root.lunchbox..lunchbox&#45;&gt;root.lunchbox..lunchbox.tools</title>
<path fill="none" stroke="#a0d17b" d="M564.577,-71.9243C608.7476,-61.6983 664.1079,-48.8818 709.7733,-38.3097"/>
<polygon fill="#a0d17b" stroke="#a0d17b" points="710.7078,-41.686 719.6607,-36.0207 709.1289,-34.8664 710.7078,-41.686"/>
</g>
<!-- wrapt -->
<g id="node10" class="node">
<title>wrapt</title>
<polygon fill="#343434" stroke="#343434" points="826.5,-108 768.5,-108 768.5,-72 826.5,-72 826.5,-108"/>
<text text-anchor="middle" x="797.5" y="-86.3" font-family="Courier,monospace" font-size="14.00" fill="#de958e">wrapt</text>
</g>
<!-- wrapt&#45;&gt;root.lunchbox..lunchbox.tools -->
<g id="edge12" class="edge">
<title>wrapt&#45;&gt;root.lunchbox..lunchbox.tools</title>
<path fill="none" stroke="#de958e" d="M797.5,-71.8314C797.5,-64.131 797.5,-54.9743 797.5,-46.4166"/>
<polygon fill="#de958e" stroke="#de958e" points="801.0001,-46.4132 797.5,-36.4133 794.0001,-46.4133 801.0001,-46.4132"/>
</g>
</g>
</svg>
