<?xml version="1.0" encoding="UTF-8" standalone="no"?>
<!DOCTYPE svg PUBLIC "-//W3C//DTD SVG 1.1//EN"
 "http://www.w3.org/Graphics/SVG/1.1/DTD/svg11.dtd">
<!-- Generated by graphviz version 2.43.0 (0)
 -->
<!-- Title: %3 Pages: 1 -->
<svg width="686pt" height="390pt"
 viewBox="0.00 0.00 686.00 390.00" xmlns="http://www.w3.org/2000/svg" xmlns:xlink="http://www.w3.org/1999/xlink">
<g id="graph0" class="graph" transform="scale(1 1) rotate(0) translate(4 386)">
<title>%3</title>
<polygon fill="#242424" stroke="transparent" points="-4,4 -4,-386 682,-386 682,4 -4,4"/>
<!-- __init__ -->
<g id="node1" class="node">
<title>__init__</title>
<polygon fill="#343434" stroke="#343434" points="103.5,-36 20.5,-36 20.5,0 103.5,0 103.5,-36"/>
<text text-anchor="middle" x="62" y="-14.3" font-family="Courier,monospace" font-size="14.00" fill="#b6ecf3">__init__</text>
</g>
<!-- cli -->
<g id="node2" class="node">
<title>cli</title>
<polygon fill="#343434" stroke="#343434" points="89,-90 35,-90 35,-54 89,-54 89,-90"/>
<text text-anchor="middle" x="62" y="-68.3" font-family="Courier,monospace" font-size="14.00" fill="#b6ecf3">cli</text>
</g>
<!-- lunchbox.__init__ -->
<g id="node3" class="node">
<title>lunchbox.__init__</title>
<polygon fill="#343434" stroke="#343434" points="321,-382 164,-382 164,-346 321,-346 321,-382"/>
<text text-anchor="middle" x="242.5" y="-360.3" font-family="Courier,monospace" font-size="14.00" fill="#b6ecf3">lunchbox.__init__</text>
</g>
<!-- lunchbox.command -->
<g id="node4" class="node">
<title>lunchbox.command</title>
<polygon fill="#343434" stroke="#343434" points="678,-190 529,-190 529,-154 678,-154 678,-190"/>
<text text-anchor="middle" x="603.5" y="-168.3" font-family="Courier,monospace" font-size="14.00" fill="#b6ecf3">lunchbox.command</text>
</g>
<!-- lunchbox.enforce -->
<g id="node5" class="node">
<title>lunchbox.enforce</title>
<polygon fill="#343434" stroke="#343434" points="317,-290 168,-290 168,-254 317,-254 317,-290"/>
<text text-anchor="middle" x="242.5" y="-268.3" font-family="Courier,monospace" font-size="14.00" fill="#b6ecf3">lunchbox.enforce</text>
</g>
<!-- lunchbox.tools -->
<g id="node8" class="node">
<title>lunchbox.tools</title>
<polygon fill="#343434" stroke="#343434" points="493,-190 361,-190 361,-154 493,-154 493,-190"/>
<text text-anchor="middle" x="427" y="-168.3" font-family="Courier,monospace" font-size="14.00" fill="#b6ecf3">lunchbox.tools</text>
</g>
<!-- lunchbox.enforce&#45;&gt;lunchbox.tools -->
<g id="edge1" class="edge">
<title>lunchbox.enforce&#45;&gt;lunchbox.tools</title>
<path fill="none" stroke="#b6ecf3" d="M304.86,-253.95C311.78,-251.24 318.63,-248.26 325,-245 350.95,-231.72 377.57,-212.2 396.96,-196.68"/>
<polygon fill="#b6ecf3" stroke="#b6ecf3" points="399.25,-199.33 404.8,-190.3 394.83,-193.9 399.25,-199.33"/>
</g>
<!-- lunchbox.singleton -->
<g id="node6" class="node">
<title>lunchbox.singleton</title>
<polygon fill="#343434" stroke="#343434" points="325,-236 160,-236 160,-200 325,-200 325,-236"/>
<text text-anchor="middle" x="242.5" y="-214.3" font-family="Courier,monospace" font-size="14.00" fill="#b6ecf3">lunchbox.singleton</text>
</g>
<!-- lunchbox.stopwatch -->
<g id="node7" class="node">
<title>lunchbox.stopwatch</title>
<polygon fill="#343434" stroke="#343434" points="325,-144 160,-144 160,-108 325,-108 325,-144"/>
<text text-anchor="middle" x="242.5" y="-122.3" font-family="Courier,monospace" font-size="14.00" fill="#b6ecf3">lunchbox.stopwatch</text>
</g>
<!-- lunchbox.stopwatch&#45;&gt;lunchbox.tools -->
<g id="edge2" class="edge">
<title>lunchbox.stopwatch&#45;&gt;lunchbox.tools</title>
<path fill="none" stroke="#b6ecf3" d="M315.11,-144.05C326.89,-147.02 339.12,-150.1 350.99,-153.09"/>
<polygon fill="#b6ecf3" stroke="#b6ecf3" points="350.29,-156.53 360.84,-155.58 352,-149.74 350.29,-156.53"/>
</g>
<!-- lunchbox.tools&#45;&gt;lunchbox.command -->
<g id="edge3" class="edge">
<title>lunchbox.tools&#45;&gt;lunchbox.command</title>
<path fill="none" stroke="#b6ecf3" d="M493.47,-172C501.66,-172 510.11,-172 518.52,-172"/>
<polygon fill="#b6ecf3" stroke="#b6ecf3" points="518.75,-175.5 528.75,-172 518.75,-168.5 518.75,-175.5"/>
</g>
<!-- click -->
<g id="node9" class="node">
<title>click</title>
<polygon fill="#343434" stroke="#343434" points="456,-136 398,-136 398,-100 456,-100 456,-136"/>
<text text-anchor="middle" x="427" y="-114.3" font-family="Courier,monospace" font-size="14.00" fill="#de958e">click</text>
</g>
<!-- click&#45;&gt;lunchbox.command -->
<g id="edge4" class="edge">
<title>click&#45;&gt;lunchbox.command</title>
<path fill="none" stroke="#de958e" d="M456.04,-126.68C477.14,-133.21 507.01,-142.45 534.27,-150.88"/>
<polygon fill="#de958e" stroke="#de958e" points="533.58,-154.34 544.17,-153.95 535.65,-147.65 533.58,-154.34"/>
</g>
<!-- humanfriendly -->
<g id="node10" class="node">
<title>humanfriendly</title>
<polygon fill="#343434" stroke="#343434" points="124,-144 0,-144 0,-108 124,-108 124,-144"/>
<text text-anchor="middle" x="62" y="-122.3" font-family="Courier,monospace" font-size="14.00" fill="#de958e">humanfriendly</text>
</g>
<!-- humanfriendly&#45;&gt;lunchbox.stopwatch -->
<g id="edge5" class="edge">
<title>humanfriendly&#45;&gt;lunchbox.stopwatch</title>
<path fill="none" stroke="#de958e" d="M124.43,-126C132.62,-126 141.16,-126 149.73,-126"/>
<polygon fill="#de958e" stroke="#de958e" points="149.78,-129.5 159.78,-126 149.78,-122.5 149.78,-129.5"/>
</g>
<!-- lunchbox -->
<g id="node11" class="node">
<title>lunchbox</title>
<polygon fill="#343434" stroke="#343434" points="103.5,-263 20.5,-263 20.5,-227 103.5,-227 103.5,-263"/>
<text text-anchor="middle" x="62" y="-241.3" font-family="Courier,monospace" font-size="14.00" fill="#a0d17b">lunchbox</text>
</g>
<!-- lunchbox&#45;&gt;lunchbox.__init__ -->
<g id="edge6" class="edge">
<title>lunchbox&#45;&gt;lunchbox.__init__</title>
<path fill="none" stroke="#a0d17b" d="M79.34,-263.09C97.5,-282.3 128.42,-312.53 160,-332 165.74,-335.54 171.93,-338.81 178.25,-341.8"/>
<polygon fill="#a0d17b" stroke="#a0d17b" points="177.01,-345.08 187.57,-345.99 179.88,-338.7 177.01,-345.08"/>
</g>
<!-- lunchbox&#45;&gt;lunchbox.command -->
<g id="edge7" class="edge">
<title>lunchbox&#45;&gt;lunchbox.command</title>
<path fill="none" stroke="#a0d17b" d="M87.42,-263.23C106.18,-276.04 133.32,-292.07 160,-299 230.98,-317.43 253.35,-314.62 325,-299 416.32,-279.1 513.56,-226.32 565.19,-195.42"/>
<polygon fill="#a0d17b" stroke="#a0d17b" points="567.24,-198.27 573.99,-190.11 563.62,-192.28 567.24,-198.27"/>
</g>
<!-- lunchbox&#45;&gt;lunchbox.enforce -->
<g id="edge8" class="edge">
<title>lunchbox&#45;&gt;lunchbox.enforce</title>
<path fill="none" stroke="#a0d17b" d="M103.5,-251.13C119.63,-253.57 138.83,-256.47 157.7,-259.32"/>
<polygon fill="#a0d17b" stroke="#a0d17b" points="157.41,-262.82 167.82,-260.86 158.46,-255.9 157.41,-262.82"/>
</g>
<!-- lunchbox&#45;&gt;lunchbox.singleton -->
<g id="edge9" class="edge">
<title>lunchbox&#45;&gt;lunchbox.singleton</title>
<path fill="none" stroke="#a0d17b" d="M103.5,-238.87C117.39,-236.77 133.54,-234.33 149.81,-231.87"/>
<polygon fill="#a0d17b" stroke="#a0d17b" points="150.56,-235.29 159.93,-230.34 149.52,-228.37 150.56,-235.29"/>
</g>
<!-- lunchbox&#45;&gt;lunchbox.stopwatch -->
<g id="edge10" class="edge">
<title>lunchbox&#45;&gt;lunchbox.stopwatch</title>
<path fill="none" stroke="#a0d17b" d="M79.34,-226.91C97.5,-207.7 128.42,-177.47 160,-158 165.74,-154.46 171.93,-151.19 178.25,-148.2"/>
<polygon fill="#a0d17b" stroke="#a0d17b" points="179.88,-151.3 187.57,-144.01 177.01,-144.92 179.88,-151.3"/>
</g>
<!-- lunchbox&#45;&gt;lunchbox.tools -->
<g id="edge11" class="edge">
<title>lunchbox&#45;&gt;lunchbox.tools</title>
<path fill="none" stroke="#a0d17b" d="M88.37,-226.8C107.17,-214.35 133.96,-198.76 160,-191 222.42,-172.4 296.57,-168.5 350.7,-168.77"/>
<polygon fill="#a0d17b" stroke="#a0d17b" points="350.88,-172.27 360.91,-168.87 350.94,-165.27 350.88,-172.27"/>
</g>
<!-- wrapt -->
<g id="node12" class="node">
<title>wrapt</title>
<polygon fill="#343434" stroke="#343434" points="271.5,-90 213.5,-90 213.5,-54 271.5,-54 271.5,-90"/>
<text text-anchor="middle" x="242.5" y="-68.3" font-family="Courier,monospace" font-size="14.00" fill="#de958e">wrapt</text>
</g>
<!-- wrapt&#45;&gt;lunchbox.tools -->
<g id="edge12" class="edge">
<title>wrapt&#45;&gt;lunchbox.tools</title>
<path fill="none" stroke="#de958e" d="M271.78,-77.08C288.39,-81.06 309.15,-87.85 325,-99 346.23,-113.94 340.34,-129.28 361,-145 362.78,-146.35 364.63,-147.65 366.55,-148.89"/>
<polygon fill="#de958e" stroke="#de958e" points="364.84,-151.95 375.24,-153.99 368.39,-145.91 364.84,-151.95"/>
</g>
</g>
</svg>
