<?xml version="1.0" encoding="UTF-8" standalone="no"?>
<!DOCTYPE svg PUBLIC "-//W3C//DTD SVG 1.1//EN"
 "http://www.w3.org/Graphics/SVG/1.1/DTD/svg11.dtd">
<!-- Generated by graphviz version 2.40.1 (20161225.0304)
 -->
<!-- Title: %3 Pages: 1 -->
<svg width="501pt" height="194pt"
 viewBox="0.00 0.00 501.00 194.00" xmlns="http://www.w3.org/2000/svg" xmlns:xlink="http://www.w3.org/1999/xlink">
<g id="graph0" class="graph" transform="scale(1 1) rotate(0) translate(4 190)">
<title>%3</title>
<polygon fill="#242424" stroke="transparent" points="-4,4 -4,-190 497,-190 497,4 -4,4"/>
<!-- cli -->
<g id="node1" class="node">
<title>cli</title>
<polygon fill="#343434" stroke="#343434" points="89,-36 35,-36 35,0 89,0 89,-36"/>
<text text-anchor="middle" x="62" y="-14.3" font-family="Courier,monospace" font-size="14.00" fill="#b6ecf3">cli</text>
</g>
<!-- lunchbox.enforce -->
<g id="node2" class="node">
<title>lunchbox.enforce</title>
<polygon fill="#343434" stroke="#343434" points="317,-186 168,-186 168,-150 317,-150 317,-186"/>
<text text-anchor="middle" x="242.5" y="-164.3" font-family="Courier,monospace" font-size="14.00" fill="#b6ecf3">lunchbox.enforce</text>
</g>
<!-- lunchbox.tools -->
<g id="node4" class="node">
<title>lunchbox.tools</title>
<polygon fill="#343434" stroke="#343434" points="493,-117 361,-117 361,-81 493,-81 493,-117"/>
<text text-anchor="middle" x="427" y="-95.3" font-family="Courier,monospace" font-size="14.00" fill="#b6ecf3">lunchbox.tools</text>
</g>
<!-- lunchbox.enforce&#45;&gt;lunchbox.tools -->
<g id="edge1" class="edge">
<title>lunchbox.enforce&#45;&gt;lunchbox.tools</title>
<path fill="none" stroke="#b6ecf3" d="M290.9752,-149.8711C315.0217,-140.8781 344.2342,-129.953 369.4146,-120.536"/>
<polygon fill="#b6ecf3" stroke="#b6ecf3" points="370.7082,-123.7891 378.8485,-117.0079 368.2561,-117.2326 370.7082,-123.7891"/>
</g>
<!-- lunchbox.stopwatch -->
<g id="node3" class="node">
<title>lunchbox.stopwatch</title>
<polygon fill="#343434" stroke="#343434" points="325,-94 160,-94 160,-58 325,-58 325,-94"/>
<text text-anchor="middle" x="242.5" y="-72.3" font-family="Courier,monospace" font-size="14.00" fill="#b6ecf3">lunchbox.stopwatch</text>
</g>
<!-- lunchbox.stopwatch&#45;&gt;lunchbox.tools -->
<g id="edge2" class="edge">
<title>lunchbox.stopwatch&#45;&gt;lunchbox.tools</title>
<path fill="none" stroke="#b6ecf3" d="M325.0365,-86.2891C333.5629,-87.352 342.2013,-88.4289 350.6558,-89.4828"/>
<polygon fill="#b6ecf3" stroke="#b6ecf3" points="350.5013,-92.9906 360.8575,-90.7546 351.3673,-86.0443 350.5013,-92.9906"/>
</g>
<!-- lunchbox -->
<g id="node5" class="node">
<title>lunchbox</title>
<polygon fill="#343434" stroke="#343434" points="103.5,-144 20.5,-144 20.5,-108 103.5,-108 103.5,-144"/>
<text text-anchor="middle" x="62" y="-122.3" font-family="Courier,monospace" font-size="14.00" fill="#a0d17b">lunchbox</text>
</g>
<!-- lunchbox&#45;&gt;lunchbox.enforce -->
<g id="edge3" class="edge">
<title>lunchbox&#45;&gt;lunchbox.enforce</title>
<path fill="none" stroke="#a0d17b" d="M103.864,-135.7412C120.0933,-139.5176 139.2865,-143.9836 158.1357,-148.3695"/>
<polygon fill="#a0d17b" stroke="#a0d17b" points="157.4108,-151.7943 167.9438,-150.6518 158.9973,-144.9764 157.4108,-151.7943"/>
</g>
<!-- lunchbox&#45;&gt;lunchbox.stopwatch -->
<g id="edge4" class="edge">
<title>lunchbox&#45;&gt;lunchbox.stopwatch</title>
<path fill="none" stroke="#a0d17b" d="M103.864,-114.4033C122.7392,-109.1747 145.6234,-102.8356 167.3131,-96.8274"/>
<polygon fill="#a0d17b" stroke="#a0d17b" points="168.4732,-100.1379 177.1759,-94.0953 166.6044,-93.392 168.4732,-100.1379"/>
</g>
<!-- lunchbox&#45;&gt;lunchbox.tools -->
<g id="edge5" class="edge">
<title>lunchbox&#45;&gt;lunchbox.tools</title>
<path fill="none" stroke="#a0d17b" d="M103.5148,-122.929C163.4755,-118.4936 275.3512,-110.2179 350.5094,-104.6582"/>
<polygon fill="#a0d17b" stroke="#a0d17b" points="351.1471,-108.1207 360.8616,-103.8924 350.6306,-101.1398 351.1471,-108.1207"/>
</g>
<!-- humanfriendly -->
<g id="node6" class="node">
<title>humanfriendly</title>
<polygon fill="#343434" stroke="#343434" points="124,-90 0,-90 0,-54 124,-54 124,-90"/>
<text text-anchor="middle" x="62" y="-68.3" font-family="Courier,monospace" font-size="14.00" fill="#de958e">humanfriendly</text>
</g>
<!-- humanfriendly&#45;&gt;lunchbox.stopwatch -->
<g id="edge6" class="edge">
<title>humanfriendly&#45;&gt;lunchbox.stopwatch</title>
<path fill="none" stroke="#de958e" d="M124.1179,-73.3766C132.4003,-73.5601 141.034,-73.7514 149.699,-73.9435"/>
<polygon fill="#de958e" stroke="#de958e" points="149.7912,-77.4463 159.8663,-74.1688 149.9463,-70.448 149.7912,-77.4463"/>
</g>
<!-- wrapt -->
<g id="node7" class="node">
<title>wrapt</title>
<polygon fill="#343434" stroke="#343434" points="271.5,-40 213.5,-40 213.5,-4 271.5,-4 271.5,-40"/>
<text text-anchor="middle" x="242.5" y="-18.3" font-family="Courier,monospace" font-size="14.00" fill="#de958e">wrapt</text>
</g>
<!-- wrapt&#45;&gt;lunchbox.tools -->
<g id="edge7" class="edge">
<title>wrapt&#45;&gt;lunchbox.tools</title>
<path fill="none" stroke="#de958e" d="M271.8746,-30.5206C287.7907,-35.4094 307.6878,-41.964 325,-49 344.7589,-57.0305 366.0271,-67.1993 384.003,-76.2666"/>
<polygon fill="#de958e" stroke="#de958e" points="382.5787,-79.469 393.0777,-80.8907 385.7568,-73.232 382.5787,-79.469"/>
</g>
</g>
</svg>
