<?xml version="1.0" encoding="UTF-8" standalone="no"?>
<!DOCTYPE svg PUBLIC "-//W3C//DTD SVG 1.1//EN"
 "http://www.w3.org/Graphics/SVG/1.1/DTD/svg11.dtd">
<!-- Generated by graphviz version 2.40.1 (20161225.0304)
 -->
<!-- Title: %3 Pages: 1 -->
<svg width="1332pt" height="333pt"
 viewBox="0.00 0.00 1332.00 332.77" xmlns="http://www.w3.org/2000/svg" xmlns:xlink="http://www.w3.org/1999/xlink">
<g id="graph0" class="graph" transform="scale(1 1) rotate(0) translate(4 328.7705)">
<title>%3</title>
<polygon fill="#242424" stroke="transparent" points="-4,4 -4,-328.7705 1328,-328.7705 1328,4 -4,4"/>
<!-- home.ubuntu.lunchbox..cli -->
<g id="node1" class="node">
<title>home.ubuntu.lunchbox..cli</title>
<polygon fill="#343434" stroke="#343434" points="920.5,-323 697.5,-323 697.5,-287 920.5,-287 920.5,-323"/>
<text text-anchor="middle" x="809" y="-301.3" font-family="Courier,monospace" font-size="14.00" fill="#b6ecf3">home.ubuntu.lunchbox..cli</text>
</g>
<!-- home.ubuntu.lunchbox..lunchbox.enforce -->
<g id="node2" class="node">
<title>home.ubuntu.lunchbox..lunchbox.enforce</title>
<polygon fill="#343434" stroke="#343434" points="1315.5,-306 985.5,-306 985.5,-270 1315.5,-270 1315.5,-306"/>
<text text-anchor="middle" x="1150.5" y="-284.3" font-family="Courier,monospace" font-size="14.00" fill="#b6ecf3">home.ubuntu.lunchbox..lunchbox.enforce</text>
</g>
<!-- home.ubuntu.lunchbox..lunchbox.singleton -->
<g id="node3" class="node">
<title>home.ubuntu.lunchbox..lunchbox.singleton</title>
<polygon fill="#343434" stroke="#343434" points="1324,-252 977,-252 977,-216 1324,-216 1324,-252"/>
<text text-anchor="middle" x="1150.5" y="-230.3" font-family="Courier,monospace" font-size="14.00" fill="#b6ecf3">home.ubuntu.lunchbox..lunchbox.singleton</text>
</g>
<!-- home.ubuntu.lunchbox..lunchbox.stopwatch -->
<g id="node4" class="node">
<title>home.ubuntu.lunchbox..lunchbox.stopwatch</title>
<polygon fill="#343434" stroke="#343434" points="1324,-198 977,-198 977,-162 1324,-162 1324,-198"/>
<text text-anchor="middle" x="1150.5" y="-176.3" font-family="Courier,monospace" font-size="14.00" fill="#b6ecf3">home.ubuntu.lunchbox..lunchbox.stopwatch</text>
</g>
<!-- home.ubuntu.lunchbox..lunchbox.tools -->
<g id="node5" class="node">
<title>home.ubuntu.lunchbox..lunchbox.tools</title>
<polygon fill="#343434" stroke="#343434" points="1307.5,-117 993.5,-117 993.5,-81 1307.5,-81 1307.5,-117"/>
<text text-anchor="middle" x="1150.5" y="-95.3" font-family="Courier,monospace" font-size="14.00" fill="#b6ecf3">home.ubuntu.lunchbox..lunchbox.tools</text>
</g>
<!-- humanfriendly -->
<g id="node6" class="node">
<title>humanfriendly</title>
<polygon fill="#343434" stroke="#343434" points="871,-198 747,-198 747,-162 871,-162 871,-198"/>
<text text-anchor="middle" x="809" y="-176.3" font-family="Courier,monospace" font-size="14.00" fill="#de958e">humanfriendly</text>
</g>
<!-- humanfriendly&#45;&gt;home.ubuntu.lunchbox..lunchbox.stopwatch -->
<g id="edge1" class="edge">
<title>humanfriendly&#45;&gt;home.ubuntu.lunchbox..lunchbox.stopwatch</title>
<path fill="none" stroke="#de958e" d="M871.2393,-180C898.5547,-180 932.1962,-180 966.5544,-180"/>
<polygon fill="#de958e" stroke="#de958e" points="966.7448,-183.5001 976.7448,-180 966.7447,-176.5001 966.7448,-183.5001"/>
</g>
<!-- home -->
<g id="node7" class="node">
<title>home</title>
<polygon fill="#343434" stroke="#343434" points="54,-254 0,-254 0,-218 54,-218 54,-254"/>
<text text-anchor="middle" x="27" y="-232.3" font-family="Courier,monospace" font-size="14.00" fill="#a0d17b">home</text>
</g>
<!-- home.ubuntu -->
<g id="node8" class="node">
<title>home.ubuntu</title>
<polygon fill="#343434" stroke="#343434" points="197,-277 90,-277 90,-241 197,-241 197,-277"/>
<text text-anchor="middle" x="143.5" y="-255.3" font-family="Courier,monospace" font-size="14.00" fill="#a0d17b">home.ubuntu</text>
</g>
<!-- home&#45;&gt;home.ubuntu -->
<g id="edge2" class="edge">
<title>home&#45;&gt;home.ubuntu</title>
<path fill="none" stroke="#a0d17b" d="M54.0203,-241.3345C61.8196,-242.8743 70.6794,-244.6234 79.7185,-246.4079"/>
<polygon fill="#a0d17b" stroke="#a0d17b" points="79.067,-249.8468 89.5555,-248.35 80.4228,-242.9794 79.067,-249.8468"/>
</g>
<!-- home.ubuntu.lunchbox -->
<g id="node9" class="node">
<title>home.ubuntu.lunchbox</title>
<polygon fill="#343434" stroke="#343434" points="415,-231 233,-231 233,-195 415,-195 415,-231"/>
<text text-anchor="middle" x="324" y="-209.3" font-family="Courier,monospace" font-size="14.00" fill="#a0d17b">home.ubuntu.lunchbox</text>
</g>
<!-- home&#45;&gt;home.ubuntu.lunchbox -->
<g id="edge3" class="edge">
<title>home&#45;&gt;home.ubuntu.lunchbox</title>
<path fill="none" stroke="#a0d17b" d="M54.1441,-233.8979C92.0471,-230.9627 162.8814,-225.4772 222.4683,-220.8627"/>
<polygon fill="#a0d17b" stroke="#a0d17b" points="222.9885,-224.333 232.6883,-220.0713 222.4479,-217.3539 222.9885,-224.333"/>
</g>
<!-- home.ubuntu.lunchbox. -->
<g id="node10" class="node">
<title>home.ubuntu.lunchbox.</title>
<polygon fill="#343434" stroke="#343434" points="641,-323 451,-323 451,-287 641,-287 641,-323"/>
<text text-anchor="middle" x="546" y="-301.3" font-family="Courier,monospace" font-size="14.00" fill="#a0d17b">home.ubuntu.lunchbox.</text>
</g>
<!-- home&#45;&gt;home.ubuntu.lunchbox. -->
<g id="edge4" class="edge">
<title>home&#45;&gt;home.ubuntu.lunchbox.</title>
<path fill="none" stroke="#a0d17b" d="M43.8813,-254.1286C55.6232,-265.445 72.297,-279.1268 90,-286 203.6706,-330.1327 345.4627,-328.0714 440.4887,-319.4061"/>
<polygon fill="#a0d17b" stroke="#a0d17b" points="441.0633,-322.8673 450.6862,-318.4345 440.3993,-315.8988 441.0633,-322.8673"/>
</g>
<!-- home.ubuntu.lunchbox..lunchbox -->
<g id="node11" class="node">
<title>home.ubuntu.lunchbox..lunchbox</title>
<polygon fill="#343434" stroke="#343434" points="941,-252 677,-252 677,-216 941,-216 941,-252"/>
<text text-anchor="middle" x="809" y="-230.3" font-family="Courier,monospace" font-size="14.00" fill="#a0d17b">home.ubuntu.lunchbox..lunchbox</text>
</g>
<!-- home&#45;&gt;home.ubuntu.lunchbox..lunchbox -->
<g id="edge5" class="edge">
<title>home&#45;&gt;home.ubuntu.lunchbox..lunchbox</title>
<path fill="none" stroke="#a0d17b" d="M54.2619,-227.0711C93.328,-214.8097 167.7299,-193.4335 233,-186 400.4314,-166.9316 596.0592,-193.5353 710.8426,-214.0963"/>
<polygon fill="#a0d17b" stroke="#a0d17b" points="710.5476,-217.5998 721.0116,-215.94 711.7964,-210.7121 710.5476,-217.5998"/>
</g>
<!-- home.ubuntu&#45;&gt;home.ubuntu.lunchbox -->
<g id="edge6" class="edge">
<title>home.ubuntu&#45;&gt;home.ubuntu.lunchbox</title>
<path fill="none" stroke="#a0d17b" d="M197.1672,-245.323C211.711,-241.6166 227.7805,-237.5213 243.455,-233.5267"/>
<polygon fill="#a0d17b" stroke="#a0d17b" points="244.3204,-236.9181 253.1463,-231.0569 242.5917,-230.1349 244.3204,-236.9181"/>
</g>
<!-- home.ubuntu&#45;&gt;home.ubuntu.lunchbox. -->
<g id="edge7" class="edge">
<title>home.ubuntu&#45;&gt;home.ubuntu.lunchbox.</title>
<path fill="none" stroke="#a0d17b" d="M197.3871,-267.9051C209.1102,-269.7092 221.4579,-271.5083 233,-273 302.1486,-281.9366 380.1563,-289.917 440.9975,-295.673"/>
<polygon fill="#a0d17b" stroke="#a0d17b" points="440.7106,-299.1614 450.9945,-296.6134 441.3663,-292.1922 440.7106,-299.1614"/>
</g>
<!-- home.ubuntu&#45;&gt;home.ubuntu.lunchbox..lunchbox -->
<g id="edge8" class="edge">
<title>home.ubuntu&#45;&gt;home.ubuntu.lunchbox..lunchbox</title>
<path fill="none" stroke="#a0d17b" d="M197.116,-256.9859C298.2107,-253.1882 520.023,-244.8556 666.951,-239.3362"/>
<polygon fill="#a0d17b" stroke="#a0d17b" points="667.0964,-242.8333 676.958,-238.9603 666.8336,-235.8382 667.0964,-242.8333"/>
</g>
<!-- home.ubuntu.lunchbox&#45;&gt;home.ubuntu.lunchbox. -->
<g id="edge9" class="edge">
<title>home.ubuntu.lunchbox&#45;&gt;home.ubuntu.lunchbox.</title>
<path fill="none" stroke="#a0d17b" d="M367.5952,-231.0665C403.5655,-245.9731 454.7345,-267.1783 493.0557,-283.0591"/>
<polygon fill="#a0d17b" stroke="#a0d17b" points="491.9264,-286.3797 502.5045,-286.9749 494.6064,-279.913 491.9264,-286.3797"/>
</g>
<!-- home.ubuntu.lunchbox&#45;&gt;home.ubuntu.lunchbox..lunchbox -->
<g id="edge10" class="edge">
<title>home.ubuntu.lunchbox&#45;&gt;home.ubuntu.lunchbox..lunchbox</title>
<path fill="none" stroke="#a0d17b" d="M415.2248,-216.9499C486.0108,-220.0149 585.4292,-224.3196 666.6582,-227.8367"/>
<polygon fill="#a0d17b" stroke="#a0d17b" points="666.8351,-231.3476 676.9772,-228.2835 667.138,-224.3541 666.8351,-231.3476"/>
</g>
<!-- home.ubuntu.lunchbox.&#45;&gt;home.ubuntu.lunchbox..cli -->
<g id="edge11" class="edge">
<title>home.ubuntu.lunchbox.&#45;&gt;home.ubuntu.lunchbox..cli</title>
<path fill="none" stroke="#a0d17b" d="M641.3209,-305C656.274,-305 671.9038,-305 687.3513,-305"/>
<polygon fill="#a0d17b" stroke="#a0d17b" points="687.4673,-308.5001 697.4673,-305 687.4673,-301.5001 687.4673,-308.5001"/>
</g>
<!-- home.ubuntu.lunchbox.&#45;&gt;home.ubuntu.lunchbox..lunchbox -->
<g id="edge12" class="edge">
<title>home.ubuntu.lunchbox.&#45;&gt;home.ubuntu.lunchbox..lunchbox</title>
<path fill="none" stroke="#a0d17b" d="M612.706,-286.9919C649.0272,-277.1866 694.1407,-265.0076 731.9567,-254.7988"/>
<polygon fill="#a0d17b" stroke="#a0d17b" points="733.1661,-258.0976 741.9082,-252.1122 731.3416,-251.3396 733.1661,-258.0976"/>
</g>
<!-- home.ubuntu.lunchbox..lunchbox&#45;&gt;home.ubuntu.lunchbox..lunchbox.enforce -->
<g id="edge13" class="edge">
<title>home.ubuntu.lunchbox..lunchbox&#45;&gt;home.ubuntu.lunchbox..lunchbox.enforce</title>
<path fill="none" stroke="#a0d17b" d="M920.5921,-252.0141C939.4181,-255.0303 958.7636,-258.1156 977,-261 992.3348,-263.4254 1008.435,-265.9545 1024.3891,-268.4498"/>
<polygon fill="#a0d17b" stroke="#a0d17b" points="1023.8752,-271.9119 1034.2958,-269.998 1024.9561,-264.9959 1023.8752,-271.9119"/>
</g>
<!-- home.ubuntu.lunchbox..lunchbox&#45;&gt;home.ubuntu.lunchbox..lunchbox.singleton -->
<g id="edge14" class="edge">
<title>home.ubuntu.lunchbox..lunchbox&#45;&gt;home.ubuntu.lunchbox..lunchbox.singleton</title>
<path fill="none" stroke="#a0d17b" d="M941.0328,-234C949.4643,-234 958.0287,-234 966.6378,-234"/>
<polygon fill="#a0d17b" stroke="#a0d17b" points="966.7595,-237.5001 976.7594,-234 966.7594,-230.5001 966.7595,-237.5001"/>
</g>
<!-- home.ubuntu.lunchbox..lunchbox&#45;&gt;home.ubuntu.lunchbox..lunchbox.stopwatch -->
<g id="edge15" class="edge">
<title>home.ubuntu.lunchbox..lunchbox&#45;&gt;home.ubuntu.lunchbox..lunchbox.stopwatch</title>
<path fill="none" stroke="#a0d17b" d="M920.5921,-215.9859C939.4181,-212.9697 958.7636,-209.8844 977,-207 992.3348,-204.5746 1008.435,-202.0455 1024.3891,-199.5502"/>
<polygon fill="#a0d17b" stroke="#a0d17b" points="1024.9561,-203.0041 1034.2958,-198.002 1023.8752,-196.0881 1024.9561,-203.0041"/>
</g>
<!-- home.ubuntu.lunchbox..lunchbox&#45;&gt;home.ubuntu.lunchbox..lunchbox.tools -->
<g id="edge16" class="edge">
<title>home.ubuntu.lunchbox..lunchbox&#45;&gt;home.ubuntu.lunchbox..lunchbox.tools</title>
<path fill="none" stroke="#a0d17b" d="M925.2958,-215.8488C930.7786,-213.2642 936.0512,-210.3298 941,-207 964.9314,-190.8975 953.9031,-170.2781 977,-153 996.3156,-138.5506 1019.5714,-127.9153 1042.6904,-120.1048"/>
<polygon fill="#a0d17b" stroke="#a0d17b" points="1043.7813,-123.4306 1052.2278,-117.0347 1041.6363,-116.7673 1043.7813,-123.4306"/>
</g>
<!-- lunchbox.enforce -->
<g id="node12" class="node">
<title>lunchbox.enforce</title>
<polygon fill="#343434" stroke="#343434" points="883.5,-144 734.5,-144 734.5,-108 883.5,-108 883.5,-144"/>
<text text-anchor="middle" x="809" y="-122.3" font-family="Courier,monospace" font-size="14.00" fill="#de958e">lunchbox.enforce</text>
</g>
<!-- lunchbox.enforce&#45;&gt;home.ubuntu.lunchbox..lunchbox.tools -->
<g id="edge17" class="edge">
<title>lunchbox.enforce&#45;&gt;home.ubuntu.lunchbox..lunchbox.tools</title>
<path fill="none" stroke="#de958e" d="M883.5216,-120.1081C912.9944,-117.7779 948.1464,-114.9987 983.1105,-112.2343"/>
<polygon fill="#de958e" stroke="#de958e" points="983.7605,-115.6939 993.4535,-111.4166 983.2088,-108.7157 983.7605,-115.6939"/>
</g>
<!-- lunchbox.stopwatch -->
<g id="node13" class="node">
<title>lunchbox.stopwatch</title>
<polygon fill="#343434" stroke="#343434" points="891.5,-90 726.5,-90 726.5,-54 891.5,-54 891.5,-90"/>
<text text-anchor="middle" x="809" y="-68.3" font-family="Courier,monospace" font-size="14.00" fill="#de958e">lunchbox.stopwatch</text>
</g>
<!-- lunchbox.stopwatch&#45;&gt;home.ubuntu.lunchbox..lunchbox.tools -->
<g id="edge18" class="edge">
<title>lunchbox.stopwatch&#45;&gt;home.ubuntu.lunchbox..lunchbox.tools</title>
<path fill="none" stroke="#de958e" d="M891.6676,-78.5359C919.3654,-80.7258 951.3214,-83.2524 983.1214,-85.7666"/>
<polygon fill="#de958e" stroke="#de958e" points="983.1902,-89.2828 993.435,-86.582 983.742,-82.3046 983.1902,-89.2828"/>
</g>
<!-- wrapt -->
<g id="node14" class="node">
<title>wrapt</title>
<polygon fill="#343434" stroke="#343434" points="838,-36 780,-36 780,0 838,0 838,-36"/>
<text text-anchor="middle" x="809" y="-14.3" font-family="Courier,monospace" font-size="14.00" fill="#de958e">wrapt</text>
</g>
<!-- wrapt&#45;&gt;home.ubuntu.lunchbox..lunchbox.tools -->
<g id="edge19" class="edge">
<title>wrapt&#45;&gt;home.ubuntu.lunchbox..lunchbox.tools</title>
<path fill="none" stroke="#de958e" d="M838.1907,-23.5316C864.9994,-28.7159 905.7879,-36.8662 941,-45 985.3648,-55.2481 1034.6911,-67.8994 1074.3314,-78.3799"/>
<polygon fill="#de958e" stroke="#de958e" points="1073.6288,-81.8145 1084.1919,-80.9949 1075.4232,-75.0484 1073.6288,-81.8145"/>
</g>
</g>
</svg>
