<?xml version="1.0" encoding="UTF-8" standalone="no"?>
<!DOCTYPE svg PUBLIC "-//W3C//DTD SVG 1.1//EN"
 "http://www.w3.org/Graphics/SVG/1.1/DTD/svg11.dtd">
<!-- Generated by graphviz version 2.40.1 (20161225.0304)
 -->
<!-- Title: %3 Pages: 1 -->
<svg width="501pt" height="190pt"
 viewBox="0.00 0.00 501.00 190.00" xmlns="http://www.w3.org/2000/svg" xmlns:xlink="http://www.w3.org/1999/xlink">
<g id="graph0" class="graph" transform="scale(1 1) rotate(0) translate(4 186)">
<title>%3</title>
<polygon fill="#242424" stroke="transparent" points="-4,4 -4,-186 497,-186 497,4 -4,4"/>
<!-- cli -->
<g id="node1" class="node">
<title>cli</title>
<polygon fill="#343434" stroke="#343434" points="89,-74 35,-74 35,-38 89,-38 89,-74"/>
<text text-anchor="middle" x="62" y="-52.3" font-family="Courier,monospace" font-size="14.00" fill="#b6ecf3">cli</text>
</g>
<!-- lunchbox.enforce -->
<g id="node2" class="node">
<title>lunchbox.enforce</title>
<polygon fill="#343434" stroke="#343434" points="317,-128 168,-128 168,-92 317,-92 317,-128"/>
<text text-anchor="middle" x="242.5" y="-106.3" font-family="Courier,monospace" font-size="14.00" fill="#b6ecf3">lunchbox.enforce</text>
</g>
<!-- lunchbox.tools -->
<g id="node4" class="node">
<title>lunchbox.tools</title>
<polygon fill="#343434" stroke="#343434" points="493,-105 361,-105 361,-69 493,-69 493,-105"/>
<text text-anchor="middle" x="427" y="-83.3" font-family="Courier,monospace" font-size="14.00" fill="#b6ecf3">lunchbox.tools</text>
</g>
<!-- lunchbox.enforce&#45;&gt;lunchbox.tools -->
<g id="edge1" class="edge">
<title>lunchbox.enforce&#45;&gt;lunchbox.tools</title>
<path fill="none" stroke="#b6ecf3" d="M317.0114,-100.7113C328.1142,-99.3272 339.5732,-97.8987 350.712,-96.5102"/>
<polygon fill="#b6ecf3" stroke="#b6ecf3" points="351.3418,-99.9588 360.832,-95.2486 350.4759,-93.0126 351.3418,-99.9588"/>
</g>
<!-- lunchbox.stopwatch -->
<g id="node3" class="node">
<title>lunchbox.stopwatch</title>
<polygon fill="#343434" stroke="#343434" points="325,-182 160,-182 160,-146 325,-146 325,-182"/>
<text text-anchor="middle" x="242.5" y="-160.3" font-family="Courier,monospace" font-size="14.00" fill="#b6ecf3">lunchbox.stopwatch</text>
</g>
<!-- lunchbox.stopwatch&#45;&gt;lunchbox.tools -->
<g id="edge2" class="edge">
<title>lunchbox.stopwatch&#45;&gt;lunchbox.tools</title>
<path fill="none" stroke="#b6ecf3" d="M301.011,-145.975C309.1339,-143.1469 317.3212,-140.1208 325,-137 344.7589,-128.9695 366.0271,-118.8007 384.003,-109.7334"/>
<polygon fill="#b6ecf3" stroke="#b6ecf3" points="385.7568,-112.768 393.0777,-105.1093 382.5787,-106.531 385.7568,-112.768"/>
</g>
<!-- humanfriendly -->
<g id="node5" class="node">
<title>humanfriendly</title>
<polygon fill="#343434" stroke="#343434" points="124,-182 0,-182 0,-146 124,-146 124,-182"/>
<text text-anchor="middle" x="62" y="-160.3" font-family="Courier,monospace" font-size="14.00" fill="#de958e">humanfriendly</text>
</g>
<!-- humanfriendly&#45;&gt;lunchbox.stopwatch -->
<g id="edge3" class="edge">
<title>humanfriendly&#45;&gt;lunchbox.stopwatch</title>
<path fill="none" stroke="#de958e" d="M124.1179,-164C132.4003,-164 141.034,-164 149.699,-164"/>
<polygon fill="#de958e" stroke="#de958e" points="149.8663,-167.5001 159.8663,-164 149.8662,-160.5001 149.8663,-167.5001"/>
</g>
<!-- lunchbox -->
<g id="node6" class="node">
<title>lunchbox</title>
<polygon fill="#343434" stroke="#343434" points="103.5,-128 20.5,-128 20.5,-92 103.5,-92 103.5,-128"/>
<text text-anchor="middle" x="62" y="-106.3" font-family="Courier,monospace" font-size="14.00" fill="#a0d17b">lunchbox</text>
</g>
<!-- lunchbox&#45;&gt;lunchbox.enforce -->
<g id="edge4" class="edge">
<title>lunchbox&#45;&gt;lunchbox.enforce</title>
<path fill="none" stroke="#a0d17b" d="M103.864,-110C120.0189,-110 139.1104,-110 157.8763,-110"/>
<polygon fill="#a0d17b" stroke="#a0d17b" points="157.9439,-113.5001 167.9438,-110 157.9438,-106.5001 157.9439,-113.5001"/>
</g>
<!-- lunchbox&#45;&gt;lunchbox.stopwatch -->
<g id="edge5" class="edge">
<title>lunchbox&#45;&gt;lunchbox.stopwatch</title>
<path fill="none" stroke="#a0d17b" d="M103.864,-122.5244C124.185,-128.6038 149.1527,-136.0734 172.2739,-142.9905"/>
<polygon fill="#a0d17b" stroke="#a0d17b" points="171.4674,-146.4024 182.051,-145.9155 173.4737,-139.6961 171.4674,-146.4024"/>
</g>
<!-- lunchbox&#45;&gt;lunchbox.tools -->
<g id="edge6" class="edge">
<title>lunchbox&#45;&gt;lunchbox.tools</title>
<path fill="none" stroke="#a0d17b" d="M103.9329,-95.7794C121.0967,-90.6627 141.2872,-85.5306 160,-83 223.8762,-74.3617 297.1272,-76.2866 350.7275,-79.8486"/>
<polygon fill="#a0d17b" stroke="#a0d17b" points="350.6185,-83.3495 360.8383,-80.5554 351.1067,-76.3665 350.6185,-83.3495"/>
</g>
<!-- wrapt -->
<g id="node7" class="node">
<title>wrapt</title>
<polygon fill="#343434" stroke="#343434" points="271.5,-36 213.5,-36 213.5,0 271.5,0 271.5,-36"/>
<text text-anchor="middle" x="242.5" y="-14.3" font-family="Courier,monospace" font-size="14.00" fill="#de958e">wrapt</text>
</g>
<!-- wrapt&#45;&gt;lunchbox.tools -->
<g id="edge7" class="edge">
<title>wrapt&#45;&gt;lunchbox.tools</title>
<path fill="none" stroke="#de958e" d="M271.7346,-28.9333C297.9065,-38.7211 337.0408,-53.3567 369.4717,-65.4853"/>
<polygon fill="#de958e" stroke="#de958e" points="368.2683,-68.772 378.8608,-68.9967 370.7204,-62.2155 368.2683,-68.772"/>
</g>
</g>
</svg>
