<?xml version="1.0" encoding="UTF-8" standalone="no"?>
<!DOCTYPE svg PUBLIC "-//W3C//DTD SVG 1.1//EN"
 "http://www.w3.org/Graphics/SVG/1.1/DTD/svg11.dtd">
<!-- Generated by graphviz version 2.40.1 (20161225.0304)
 -->
<!-- Title: %3 Pages: 1 -->
<svg width="542pt" height="116pt"
 viewBox="0.00 0.00 542.00 116.00" xmlns="http://www.w3.org/2000/svg" xmlns:xlink="http://www.w3.org/1999/xlink">
<g id="graph0" class="graph" transform="scale(1 1) rotate(0) translate(4 112)">
<title>%3</title>
<polygon fill="#242424" stroke="transparent" points="-4,4 -4,-112 538,-112 538,4 -4,4"/>
<!-- cli -->
<g id="node1" class="node">
<title>cli</title>
<polygon fill="#343434" stroke="#343434" points="54,-108 0,-108 0,-72 54,-72 54,-108"/>
<text text-anchor="middle" x="27" y="-86.3" font-family="Courier,monospace" font-size="14.00" fill="#b6ecf3">cli</text>
</g>
<!-- lunchbox.enforce -->
<g id="node2" class="node">
<title>lunchbox.enforce</title>
<polygon fill="#343434" stroke="#343434" points="383.5,-36 234.5,-36 234.5,0 383.5,0 383.5,-36"/>
<text text-anchor="middle" x="309" y="-14.3" font-family="Courier,monospace" font-size="14.00" fill="#b6ecf3">lunchbox.enforce</text>
</g>
<!-- lunchbox.stopwatch -->
<g id="node3" class="node">
<title>lunchbox.stopwatch</title>
<polygon fill="#343434" stroke="#343434" points="216.5,-36 51.5,-36 51.5,0 216.5,0 216.5,-36"/>
<text text-anchor="middle" x="134" y="-14.3" font-family="Courier,monospace" font-size="14.00" fill="#b6ecf3">lunchbox.stopwatch</text>
</g>
<!-- lunchbox.tools -->
<g id="node4" class="node">
<title>lunchbox.tools</title>
<polygon fill="#343434" stroke="#343434" points="534,-36 402,-36 402,0 534,0 534,-36"/>
<text text-anchor="middle" x="468" y="-14.3" font-family="Courier,monospace" font-size="14.00" fill="#b6ecf3">lunchbox.tools</text>
</g>
<!-- lunchbox -->
<g id="node5" class="node">
<title>lunchbox</title>
<polygon fill="#343434" stroke="#343434" points="350.5,-108 267.5,-108 267.5,-72 350.5,-72 350.5,-108"/>
<text text-anchor="middle" x="309" y="-86.3" font-family="Courier,monospace" font-size="14.00" fill="#a0d17b">lunchbox</text>
</g>
<!-- lunchbox&#45;&gt;lunchbox.enforce -->
<g id="edge1" class="edge">
<title>lunchbox&#45;&gt;lunchbox.enforce</title>
<path fill="none" stroke="#a0d17b" d="M309,-71.8314C309,-64.131 309,-54.9743 309,-46.4166"/>
<polygon fill="#a0d17b" stroke="#a0d17b" points="312.5001,-46.4132 309,-36.4133 305.5001,-46.4133 312.5001,-46.4132"/>
</g>
<!-- lunchbox&#45;&gt;lunchbox.stopwatch -->
<g id="edge2" class="edge">
<title>lunchbox&#45;&gt;lunchbox.stopwatch</title>
<path fill="none" stroke="#a0d17b" d="M267.0831,-72.7542C243.2328,-62.9415 213.1137,-50.5496 187.5631,-40.0374"/>
<polygon fill="#a0d17b" stroke="#a0d17b" points="188.5965,-36.678 178.0169,-36.1098 185.9331,-43.1515 188.5965,-36.678"/>
</g>
<!-- lunchbox&#45;&gt;lunchbox.tools -->
<g id="edge3" class="edge">
<title>lunchbox&#45;&gt;lunchbox.tools</title>
<path fill="none" stroke="#a0d17b" d="M349.1224,-71.8314C370.2932,-62.2446 396.4483,-50.4008 418.8303,-40.2655"/>
<polygon fill="#a0d17b" stroke="#a0d17b" points="420.5003,-43.3515 428.1661,-36.038 417.6128,-36.9748 420.5003,-43.3515"/>
</g>
<!-- humanfriendly -->
<g id="node6" class="node">
<title>humanfriendly</title>
<polygon fill="#343434" stroke="#343434" points="196,-108 72,-108 72,-72 196,-72 196,-108"/>
<text text-anchor="middle" x="134" y="-86.3" font-family="Courier,monospace" font-size="14.00" fill="#de958e">humanfriendly</text>
</g>
<!-- humanfriendly&#45;&gt;lunchbox.stopwatch -->
<g id="edge4" class="edge">
<title>humanfriendly&#45;&gt;lunchbox.stopwatch</title>
<path fill="none" stroke="#de958e" d="M134,-71.8314C134,-64.131 134,-54.9743 134,-46.4166"/>
<polygon fill="#de958e" stroke="#de958e" points="137.5001,-46.4132 134,-36.4133 130.5001,-46.4133 137.5001,-46.4132"/>
</g>
<!-- wrapt -->
<g id="node7" class="node">
<title>wrapt</title>
<polygon fill="#343434" stroke="#343434" points="497,-108 439,-108 439,-72 497,-72 497,-108"/>
<text text-anchor="middle" x="468" y="-86.3" font-family="Courier,monospace" font-size="14.00" fill="#de958e">wrapt</text>
</g>
<!-- wrapt&#45;&gt;lunchbox.tools -->
<g id="edge5" class="edge">
<title>wrapt&#45;&gt;lunchbox.tools</title>
<path fill="none" stroke="#de958e" d="M468,-71.8314C468,-64.131 468,-54.9743 468,-46.4166"/>
<polygon fill="#de958e" stroke="#de958e" points="471.5001,-46.4132 468,-36.4133 464.5001,-46.4133 471.5001,-46.4132"/>
</g>
</g>
</svg>
